#!OML:ASF E:\VariousWalksJay\Project 1\Capture day 1\Session 1\Actor2.ASF
:FULLY-SPECIFIED
:DEGREES
1299
root 5.84281 17.1148 6.84584 364.03 -31.0474 -369.821
lowerback -4.66948 -0.725249 10.565
upperback 2.95398 -1.78773 0.898392
thorax 5.47194 -0.509129 -5.14284
lowerneck -5.96301 -6.9458 -9.63114
upperneck 1.94716 -9.72574 20.4556
head 3.12706 -4.47707 7.37202
rclavicle 8.62228e-015 3.57812e-015
rhumerus -28.1409 21.4055 -92.9101
rradius 40.2927
rwrist 2.48856
rhand -9.74561 -0.845712
rfingers 7.12502
rthumb 16.2286 -30.1865
lclavicle 8.62228e-015 3.57812e-015
lhumerus -32.4601 34.3037 63.7333
lradius 10.6883
lwrist -23.5324
lhand -13.3099 -3.46511
lfingers 7.12502
lthumb 12.7944 26.1228
rfemur -3.28837 -6.99947 33.3121
rtibia 31.1172
rfoot -23.7301 0.100268
rtoes -0.840879
lfemur -29.5773 3.87173 -10.172
ltibia 43.7509
lfoot -19.6223 14.1669
ltoes -11.31
1300
root 5.80184 17.1193 6.93721 364.157 -31.3732 -369.913
lowerback -4.69068 -0.650114 10.611
upperback 3.00584 -1.69777 0.898255
thorax 5.55431 -0.456896 -5.16231
lowerneck -5.94648 -6.90308 -9.60658
upperneck 1.80529 -9.64843 20.4714
head 3.071 -4.44567 7.3807
rclavicle 7.38112e-014 -1.98785e-015
rhumerus -28.069 21.6237 -92.9548
rradius 40.377
rwrist 2.48966
rhand -9.67456 -0.70209
rfingers 7.12502
rthumb 16.297 -30.0373
lclavicle 7.38112e-014 -1.98785e-015
lhumerus -33.0804 32.934 63.5917
lradius 10.9812
lwrist -22.3869
lhand -13.1093 -3.59727
lfingers 7.12502
lthumb 12.9879 25.9785
rfemur -2.75271 -7.00512 33.2434
rtibia 30.6977
rfoot -23.6649 0.359206
rtoes -0.952428
lfemur -29.9492 4.18638 -10.299
ltibia 42.4692
lfoot -19.2146 14.2567
ltoes -10.96
1301
root 5.76064 17.1235 7.02973 364.301 -31.6949 -369.997
lowerback -4.73306 -0.579252 10.6386
upperback 3.04986 -1.61455 0.901804
thorax 5.63982 -0.408847 -5.16835
lowerneck -5.93282 -6.85705 -9.57338
upperneck 1.66791 -9.5667 20.4731
head 3.01478 -4.41197 7.38352
rclavicle -1.25694e-013 1.15295e-014
rhumerus -28.0174 21.7988 -92.9848
rradius 40.4451
rwrist 2.47601
rhand -9.62129 -0.590228
rfingers 7.12502
rthumb 16.3483 -29.9212
lclavicle -1.25694e-013 1.15295e-014
lhumerus -33.7382 31.665 63.447
lradius 11.2769
lwrist -21.3491
lhand -12.9408 -3.76261
lfingers 7.12502
lthumb 13.1503 25.8027
rfemur -2.23922 -7.01828 33.1673
rtibia 30.2844
rfoot -23.5961 0.602657
rtoes -1.0731
lfemur -30.3175 4.53227 -10.441
ltibia 41.218
lfoot -18.8243 14.2977
ltoes -10.6056
1302
root 5.71925 17.1274 7.1235 364.464 -32.0163 -370.08
lowerback -4.80023 -0.509843 10.6556
upperback 3.08959 -1.53562 0.909041
thorax 5.7346 -0.363053 -5.16527
lowerneck -5.92887 -6.80873 -9.5401
upperneck 1.53605 -9.48202 20.4724
head 2.96129 -4.37613 7.38546
rclavicle 4.90501e-014 -1.11319e-014
rhumerus -27.9769 21.9298 -92.9971
rradius 40.4943
rwrist 2.45194
rhand -9.58076 -0.511346
rfingers 7.12502
rthumb 16.3873 -29.8391
lclavicle 4.90501e-014 -1.11319e-014
lhumerus -34.435 30.5463 63.2736
lradius 11.5617
lwrist -20.441
lhand -12.7983 -3.94305
lfingers 7.12502
lthumb 13.2876 25.6134
rfemur -1.748 -7.0336 33.0873
rtibia 29.8788
rfoot -23.5258 0.828126
rtoes -1.21996
lfemur -30.6873 4.90111 -10.5902
ltibia 40.0031
lfoot -18.4631 14.2613
ltoes -10.3105
1303
root 5.67769 17.1308 7.2181 364.647 -32.3324 -370.164
lowerback -4.88963 -0.440806 10.6642
upperback 3.12558 -1.45928 0.917879
thorax 5.83794 -0.318579 -5.1562
lowerneck -5.93448 -6.76077 -9.50275
upperneck 1.4064 -9.3983 20.4742
head 2.91024 -4.34011 7.38704
rclavicle 1.0312e-014 -1.66979e-014
rhumerus -27.9465 22.0062 -92.9928
rradius 40.5253
rwrist 2.43079
rhand -9.55176 -0.456699
rfingers 7.12502
rthumb 16.4153 -29.7821
lclavicle 1.0312e-014 -1.66979e-014
lhumerus -35.1502 29.5596 63.0821
lradius 11.8341
lwrist -19.6211
lhand -12.6863 -4.10696
lfingers 7.12502
lthumb 13.3956 25.4424
rfemur -1.28276 -7.0391 33.0106
rtibia 29.4833
rfoot -23.4526 1.02347
rtoes -1.41048
lfemur -31.0645 5.28533 -10.7399
ltibia 38.8302
lfoot -18.1531 14.1009
ltoes -10.0564
1304
root 5.63612 17.1336 7.31342 364.846 -32.6462 -370.253
lowerback -4.9882 -0.375958 10.6667
upperback 3.15955 -1.38931 0.929923
thorax 5.94349 -0.277551 -5.14075
lowerneck -5.95807 -6.71169 -9.46088
upperneck 1.28261 -9.31362 20.4774
head 2.86377 -4.30241 7.38779
rclavicle 1.46604e-014 1.74931e-014
rhumerus -27.9227 22.0438 -92.9749
rradius 40.5359
rwrist 2.41193
rhand -9.53383 -0.424222
rfingers 7.12502
rthumb 16.4325 -29.7482
lclavicle 1.46604e-014 1.74931e-014
lhumerus -35.8905 28.7443 62.8444
lradius 12.0782
lwrist -18.9039
lhand -12.5998 -4.26618
lfingers 7.12502
lthumb 13.4789 25.2776
rfemur -0.835099 -7.02858 32.9383
rtibia 29.0979
rfoot -23.3783 1.18807
rtoes -1.67398
lfemur -31.441 5.65878 -10.8783
ltibia 37.7039
lfoot -17.9001 13.8088
ltoes -9.89981
1305
root 5.59468 17.1359 7.40918 365.066 -32.9581 -370.355
lowerback -5.09402 -0.308977 10.6747
upperback 3.18921 -1.31779 0.945364
thorax 6.04893 -0.235803 -5.12446
lowerneck -5.97985 -6.66768 -9.42386
upperneck 1.15348 -9.23556 20.4893
head 2.81729 -4.26823 7.3917
rclavicle -2.96686e-014 -2.0276e-014
rhumerus -27.912 22.023 -92.94
rradius 40.5252
rwrist 2.40328
rhand -9.53156 -0.409912
rfingers 7.12502
rthumb 16.4347 -29.7337
lclavicle -2.96686e-014 -2.0276e-014
lhumerus -36.6438 28.0488 62.5908
lradius 12.3034
lwrist -18.2515
lhand -12.5468 -4.39045
lfingers 7.12502
lthumb 13.53 25.15
rfemur -0.406495 -6.99641 32.8782
rtibia 28.7224
rfoot -23.2986 1.32944
rtoes -2.00245
lfemur -31.8191 6.00858 -10.99
ltibia 36.6294
lfoot -17.7047 13.3725
ltoes -9.89132
